<mxfile host="65bd71144e">
    <diagram id="2KhIsbDiPvBkP_OM17Oy" name="Page-1">
        <mxGraphModel dx="1096" dy="466" grid="0" gridSize="4" guides="1" tooltips="1" connect="1" arrows="1" fold="1" page="1" pageScale="1" pageWidth="850" pageHeight="1100" background="#FFFFFF" math="0" shadow="0">
            <root>
                <mxCell id="0"/>
                <mxCell id="1" parent="0"/>
                <mxCell id="113" value="" style="whiteSpace=wrap;html=1;strokeColor=none;fontColor=#000000;fillColor=none;" parent="1" vertex="1">
                    <mxGeometry x="291" y="54" width="553" height="498" as="geometry"/>
                </mxCell>
                <mxCell id="2" value="&lt;br&gt;&lt;b&gt;WebSPA&lt;br&gt;&lt;br&gt;&lt;br&gt;&lt;br&gt;&lt;br&gt;&lt;br&gt;&lt;br&gt;&lt;br&gt;&lt;br&gt;&lt;br&gt;&lt;br&gt;&lt;br&gt;&lt;br&gt;&lt;br&gt;&lt;br&gt;&lt;br&gt;&lt;br&gt;&lt;br&gt;&lt;br&gt;&lt;br&gt;&lt;br&gt;&lt;br&gt;&lt;br&gt;&lt;br&gt;&lt;br&gt;&lt;/b&gt;" style="html=1;dropTarget=0;fillColor=#fbf6e4;strokeColor=#000000;fontColor=#000000;" parent="1" vertex="1">
                    <mxGeometry x="324" y="91" width="414" height="400" as="geometry"/>
                </mxCell>
                <mxCell id="3" value="" style="shape=module;jettyWidth=8;jettyHeight=4;fillColor=#fbf6e4;strokeColor=#000000;" parent="2" vertex="1">
                    <mxGeometry x="1" width="20" height="20" relative="1" as="geometry">
                        <mxPoint x="-27" y="7" as="offset"/>
                    </mxGeometry>
                </mxCell>
                <mxCell id="45" style="edgeStyle=none;html=1;strokeColor=#000000;fontColor=#000000;endArrow=circle;endFill=0;" parent="1" edge="1">
                    <mxGeometry relative="1" as="geometry">
                        <mxPoint x="779" y="239" as="targetPoint"/>
                        <mxPoint x="739" y="240" as="sourcePoint"/>
                    </mxGeometry>
                </mxCell>
                <mxCell id="46" value="UI" style="edgeLabel;html=1;align=center;verticalAlign=middle;resizable=0;points=[];fontColor=#000000;labelBackgroundColor=none;" parent="45" vertex="1" connectable="0">
                    <mxGeometry x="0.4139" y="-5" relative="1" as="geometry">
                        <mxPoint x="-3" y="19" as="offset"/>
                    </mxGeometry>
                </mxCell>
                <mxCell id="51" style="edgeStyle=none;html=1;strokeColor=#000000;fontColor=#000000;endArrow=halfCircle;endFill=0;exitX=1;exitY=0.5;exitDx=0;exitDy=0;" parent="1" edge="1">
                    <mxGeometry relative="1" as="geometry">
                        <mxPoint x="766" y="455" as="targetPoint"/>
                        <mxPoint x="738" y="455" as="sourcePoint"/>
                    </mxGeometry>
                </mxCell>
                <mxCell id="52" value="Management Core" style="edgeLabel;html=1;align=center;verticalAlign=middle;resizable=0;points=[];fontColor=#000000;labelBackgroundColor=none;" parent="51" vertex="1" connectable="0">
                    <mxGeometry x="0.8658" y="7" relative="1" as="geometry">
                        <mxPoint x="24" y="27" as="offset"/>
                    </mxGeometry>
                </mxCell>
                <mxCell id="112" style="edgeStyle=none;html=1;exitX=1;exitY=0.5;exitDx=0;exitDy=0;entryX=1;entryY=0.5;entryDx=0;entryDy=0;strokeColor=#000000;endArrow=box;endFill=0;" parent="1" source="20" edge="1">
                    <mxGeometry relative="1" as="geometry">
                        <mxPoint x="738" y="455" as="targetPoint"/>
                    </mxGeometry>
                </mxCell>
                <mxCell id="20" value="Services" style="html=1;dropTarget=0;fillColor=#f2dbc0;strokeColor=#000000;fontColor=#000000;" parent="1" vertex="1">
                    <mxGeometry x="560" y="428" width="108" height="54" as="geometry"/>
                </mxCell>
                <mxCell id="21" value="" style="shape=module;jettyWidth=8;jettyHeight=4;fillColor=#f2dbc0;strokeColor=#000000;" parent="20" vertex="1">
                    <mxGeometry x="1" width="20" height="20" relative="1" as="geometry">
                        <mxPoint x="-27" y="7" as="offset"/>
                    </mxGeometry>
                </mxCell>
                <mxCell id="23" value="Pages&lt;br&gt;&lt;br&gt;&lt;br&gt;&lt;br&gt;&lt;br&gt;&lt;br&gt;&lt;br&gt;&lt;br&gt;&lt;br&gt;&lt;br&gt;&lt;br&gt;&lt;br&gt;&lt;br&gt;" style="html=1;dropTarget=0;fillColor=#f2dbc0;strokeColor=#000000;fontColor=#000000;" parent="1" vertex="1">
                    <mxGeometry x="352" y="155" width="327" height="234" as="geometry"/>
                </mxCell>
                <mxCell id="24" value="" style="shape=module;jettyWidth=8;jettyHeight=4;fillColor=#f2dbc0;strokeColor=#000000;" parent="23" vertex="1">
                    <mxGeometry x="1" width="20" height="20" relative="1" as="geometry">
                        <mxPoint x="-27" y="7" as="offset"/>
                    </mxGeometry>
                </mxCell>
                <mxCell id="88" style="edgeStyle=none;html=1;exitX=0;exitY=0.5;exitDx=0;exitDy=0;exitPerimeter=0;entryX=0.5;entryY=0;entryDx=0;entryDy=0;strokeColor=#000000;endArrow=none;endFill=0;" parent="1" source="63" target="20" edge="1">
                    <mxGeometry relative="1" as="geometry"/>
                </mxCell>
                <mxCell id="99" style="edgeStyle=none;html=1;entryX=0.691;entryY=0.805;entryDx=0;entryDy=0;entryPerimeter=0;endArrow=none;endFill=0;strokeColor=#000000;" parent="1" source="63" target="97" edge="1">
                    <mxGeometry relative="1" as="geometry"/>
                </mxCell>
                <mxCell id="63" value="" style="shape=providedRequiredInterface;html=1;verticalLabelPosition=bottom;sketch=0;fillColor=none;strokeColor=#000000;direction=north;" parent="1" vertex="1">
                    <mxGeometry x="606.5" y="396" width="15" height="15" as="geometry"/>
                </mxCell>
                <mxCell id="93" value="Models" style="html=1;dropTarget=0;fillColor=#FFCCCC;strokeColor=#000000;fontColor=#000000;" parent="1" vertex="1">
                    <mxGeometry x="368" y="248" width="108" height="54" as="geometry"/>
                </mxCell>
                <mxCell id="94" value="" style="shape=module;jettyWidth=8;jettyHeight=4;fillColor=#FFCCCC;strokeColor=#000000;" parent="93" vertex="1">
                    <mxGeometry x="1" width="20" height="20" relative="1" as="geometry">
                        <mxPoint x="-27" y="7" as="offset"/>
                    </mxGeometry>
                </mxCell>
                <mxCell id="111" style="edgeStyle=none;html=1;exitX=1;exitY=0.5;exitDx=0;exitDy=0;strokeColor=#000000;endArrow=box;endFill=0;entryX=1.001;entryY=0.373;entryDx=0;entryDy=0;entryPerimeter=0;" parent="1" source="95" target="2" edge="1">
                    <mxGeometry relative="1" as="geometry">
                        <mxPoint x="739" y="242" as="targetPoint"/>
                    </mxGeometry>
                </mxCell>
                <mxCell id="95" value="HTML" style="html=1;dropTarget=0;fillColor=#FFCCCC;strokeColor=#000000;fontColor=#000000;" parent="1" vertex="1">
                    <mxGeometry x="537" y="214" width="108" height="54" as="geometry"/>
                </mxCell>
                <mxCell id="96" value="" style="shape=module;jettyWidth=8;jettyHeight=4;fillColor=#FFCCCC;strokeColor=#000000;" parent="95" vertex="1">
                    <mxGeometry x="1" width="20" height="20" relative="1" as="geometry">
                        <mxPoint x="-27" y="7" as="offset"/>
                    </mxGeometry>
                </mxCell>
                <mxCell id="104" style="edgeStyle=none;html=1;exitX=0;exitY=0.5;exitDx=0;exitDy=0;entryX=1;entryY=0.5;entryDx=0;entryDy=0;entryPerimeter=0;strokeColor=#000000;endArrow=none;endFill=0;" parent="1" source="97" target="100" edge="1">
                    <mxGeometry relative="1" as="geometry"/>
                </mxCell>
                <mxCell id="97" value="Components" style="html=1;dropTarget=0;fillColor=#FFCCCC;strokeColor=#000000;fontColor=#000000;" parent="1" vertex="1">
                    <mxGeometry x="520" y="313" width="136" height="56" as="geometry"/>
                </mxCell>
                <mxCell id="98" value="" style="shape=module;jettyWidth=8;jettyHeight=4;fillColor=#FFCCCC;strokeColor=#000000;" parent="97" vertex="1">
                    <mxGeometry x="1" width="20" height="20" relative="1" as="geometry">
                        <mxPoint x="-27" y="7" as="offset"/>
                    </mxGeometry>
                </mxCell>
                <mxCell id="105" style="edgeStyle=none;html=1;exitX=0;exitY=0.5;exitDx=0;exitDy=0;exitPerimeter=0;entryX=0.25;entryY=1;entryDx=0;entryDy=0;strokeColor=#000000;endArrow=none;endFill=0;" parent="1" source="100" target="93" edge="1">
                    <mxGeometry relative="1" as="geometry">
                        <Array as="points">
                            <mxPoint x="395" y="341"/>
                        </Array>
                    </mxGeometry>
                </mxCell>
                <mxCell id="100" value="" style="shape=providedRequiredInterface;html=1;verticalLabelPosition=bottom;sketch=0;fillColor=none;strokeColor=#000000;direction=east;" parent="1" vertex="1">
                    <mxGeometry x="443" y="333.5" width="15" height="15" as="geometry"/>
                </mxCell>
                <mxCell id="108" style="edgeStyle=none;html=1;exitX=0;exitY=0.5;exitDx=0;exitDy=0;exitPerimeter=0;entryX=0.75;entryY=1;entryDx=0;entryDy=0;strokeColor=#000000;endArrow=none;endFill=0;" parent="1" source="101" target="95" edge="1">
                    <mxGeometry relative="1" as="geometry"/>
                </mxCell>
                <mxCell id="109" style="edgeStyle=none;html=1;exitX=1;exitY=0.5;exitDx=0;exitDy=0;exitPerimeter=0;entryX=0.723;entryY=0.024;entryDx=0;entryDy=0;entryPerimeter=0;strokeColor=#000000;endArrow=none;endFill=0;" parent="1" source="101" target="97" edge="1">
                    <mxGeometry relative="1" as="geometry"/>
                </mxCell>
                <mxCell id="101" value="" style="shape=providedRequiredInterface;html=1;verticalLabelPosition=bottom;sketch=0;fillColor=none;strokeColor=#000000;direction=south;" parent="1" vertex="1">
                    <mxGeometry x="610.5" y="283.5" width="15" height="15" as="geometry"/>
                </mxCell>
                <mxCell id="106" style="edgeStyle=none;html=1;exitX=1;exitY=0.5;exitDx=0;exitDy=0;exitPerimeter=0;strokeColor=#000000;endArrow=none;endFill=0;" parent="1" source="102" edge="1">
                    <mxGeometry relative="1" as="geometry">
                        <mxPoint x="565" y="267" as="targetPoint"/>
                    </mxGeometry>
                </mxCell>
                <mxCell id="107" style="edgeStyle=none;html=1;exitX=0;exitY=0.5;exitDx=0;exitDy=0;exitPerimeter=0;entryX=0.331;entryY=0.009;entryDx=0;entryDy=0;entryPerimeter=0;strokeColor=#000000;endArrow=none;endFill=0;" parent="1" source="102" target="97" edge="1">
                    <mxGeometry relative="1" as="geometry"/>
                </mxCell>
                <mxCell id="102" value="" style="shape=providedRequiredInterface;html=1;verticalLabelPosition=bottom;sketch=0;fillColor=none;strokeColor=#000000;direction=north;" parent="1" vertex="1">
                    <mxGeometry x="557" y="283.5" width="15" height="15" as="geometry"/>
                </mxCell>
            </root>
        </mxGraphModel>
    </diagram>
</mxfile>